<?xml version="1.0" encoding="UTF-8"?>
<svg xmlns="http://www.w3.org/2000/svg" xmlns:xlink="http://www.w3.org/1999/xlink" version="1.1" viewBox="0 0 500 500">
  <defs>
    <style>
      .cls-1, .cls-2 {
        fill: none;
      }

      .cls-3 {
        mask: url(#mask);
      }

      .cls-4 {
        fill-opacity: .2;
      }

      .cls-5 {
        fill: #f4f4f4;
      }

      .cls-6 {
        clip-path: url(#clippath-1);
      }

      .cls-7 {
        clip-path: url(#clippath-3);
      }

      .cls-8 {
        clip-path: url(#clippath-2);
      }

      .cls-2 {
        stroke: #f9f0df;
        stroke-miterlimit: 10;
        stroke-width: .7px;
      }

      .cls-9 {
        clip-path: url(#clippath);
      }
    </style>
    <clipPath id="clippath">
      <rect class="cls-1" x="78.3" y="111.7" width="105.7" height="51"/>
    </clipPath>
    <mask id="mask" x="-247.8" y="-199.9" width="797.8" height="749.9" maskUnits="userSpaceOnUse">
      <g id="_x39_aae8a77a2">
        <rect class="cls-4" x="-50" y="-50" width="600" height="600"/>
      </g>
    </mask>
    <clipPath id="clippath-1">
      <rect class="cls-1" x="77.3" y="110.7" width="106.7" height="52"/>
    </clipPath>
    <clipPath id="clippath-2">
      <rect class="cls-1" x="78.3" y="111.7" width="103.1" height="49.7"/>
    </clipPath>
    <clipPath id="clippath-3">
      <rect class="cls-1" x="78.3" y="111.7" width="104.8" height="50.9"/>
    </clipPath>
  </defs>
  <!-- Generator: Adobe Illustrator 28.7.1, SVG Export Plug-In . SVG Version: 1.2.0 Build 142)  -->
  <g>
    <g id="Layer_1">
      <g class="cls-9">
        <g class="cls-3">
          <g class="cls-6">
            <g>
              <g class="cls-8">
                <path class="cls-5" d="M130.1-199.5l51,65.2L-196.4,160.6l-51-65.2L130.1-199.5Z"/>
              </g>
              <g class="cls-7">
                <path class="cls-2" d="M130.1-199.5l51,65.2L-196.4,160.6l-51-65.2L130.1-199.5Z"/>
              </g>
            </g>
          </g>
        </g>
      </g>
      <path d="M303.4,383.7h-109.7c0-1.7.3-3.4,1-4.9.5-1.2,1.2-2.4,2-3.4,3.6-4.5,6.5-9.2,8.5-14.3,3.3-8.4,4.3-17.7,2.4-28.1h81c-2.1,9.7-.9,19.1,3.1,28.1,2.2,4.8,5.1,9.6,8.9,14.3.8,1,1.5,2.2,2,3.4,0,.2.1.3.2.5.5,1.4.7,2.9.7,4.4Z"/>
      <path d="M302.3,378.5h-107.8c.5-1.2,1.2-2.4,2-3.4,3.6-4.5,6.5-9.2,8.5-14.3h86.5c2.2,4.8,5.1,9.6,8.9,14.3.8,1,1.5,2.2,2,3.4Z"/>
      <path class="cls-5" d="M248.6,108.9c-1.3,0-2.3,1-2.3,2.3s1,2.3,2.3,2.3,2.3-1,2.3-2.3-1-2.3-2.3-2.3Z"/>
      <path d="M413,106.2H84.1c-6.2,0-11.2,4.8-11.2,10.7v210.8c0,6.3,5.1,11.3,11.3,11.3h328.8c6.2,0,11.3-5.1,11.3-11.3V116.9c0-5.9-5-10.7-11.2-10.7ZM248.3,108.9c1.5-.2,2.8,1.1,2.6,2.6-.1,1-1,1.8-2,2-1.5.2-2.8-1.1-2.6-2.6.1-1,1-1.8,2-2ZM81.5,116.4h334.2v188H81.5V116.4Z"/>
      <path d="M250.9,111.2c0,1.3-1,2.3-2.3,2.3s-2.3-1-2.3-2.3,1-2.3,2.3-2.3,2.3,1,2.3,2.3Z"/>
      <path d="M178.3,160.5c4.4,7.9,9.1,16.1,13.8,24.6,4.8,8.5,9.4,16.9,14,25,4.5,8.1,8.6,15.5,12.2,22.2,2.9,5.5,5.5,10.5,7.8,15,2.3,4.5,4.3,8.8,6,12.7-1.2-13.7-2.9-25.2-5.3-34.5-2.3-9.3-4.9-17-7.8-23.1-2.9-6.1-6-11.2-9.2-15.5-3.2-4.3-6.4-8.1-9.4-11.5-3-3.4-5.7-7.1-8.2-11-2.5-3.9-4.4-8.7-5.9-14.4-1.4-5.6-2.2-12.7-2.2-21.3v-4.9h55.9v173.8h-6.4c0-6.8-1.3-12.1-3.9-15.8-2.6-3.7-6-6.5-10.4-8.3-4.4-1.9-9.2-3.5-14.6-4.9-5.4-1.4-10.9-3.1-16.5-5.1-5.6-2.1-11.1-5-16.3-9-5.2-3.9-9.9-9.4-14-16.4l-47.9-84.4c1,15.2,2.6,27.9,4.7,38.1,2.1,10.2,4.7,18.6,7.7,25.3,3,6.7,6.2,12.2,9.5,16.7,3.3,4.4,6.6,8.4,9.8,11.9s6,7.2,8.6,11.1c2.6,3.9,4.6,8.7,6.1,14.4,1.5,5.6,2.3,12.8,2.3,21.5v4.9h-55.9V123.8h6.4c5.6,0,11.4.3,17.3.8,5.9.5,11.8,1.9,17.8,4.1,6,2.2,11.8,5.8,17.6,10.8,5.7,4.9,11.2,12,16.3,21Z"/>
      <path d="M308.3,297.6h-56.1V123.8h56.1v76.7c3.6-.5,7-.3,10.1.5,3.2.8,5.9,2,8.3,3.3,2.9,1.4,5.5,2.6,7.8,3.7,2.3,1.1,4.5,1.8,6.5,2.2v-86.4h56.1v173.8h-56.1v-81.5c-2.7-.3-5.6-1.1-8.5-2.3-2.9-1.2-5.8-2.6-8.7-4.1-2.9-1.4-5.6-2.4-8.2-3-2.6-.6-5-.6-7.4-.1v91Z"/>
      <path d="M420.3,104.1H76.9c-6.5,0-11.7,4.9-11.7,10.8v214c0,6.3,5.3,11.5,11.8,11.5h343.3c6.5,0,11.8-5.1,11.8-11.5V114.9c0-6-5.3-10.8-11.7-10.8ZM248.3,106.8c1.6-.2,2.9,1.1,2.7,2.6-.1,1-1,1.9-2.1,2-1.6.2-2.9-1.1-2.7-2.6.1-1,1-1.9,2.1-2ZM74.1,114.4h349v190.9H74.1V114.4Z"/>
      <path d="M426.1,98.6H73c-6.7,0-12.1,5-12.1,11.1v219c0,6.5,5.4,11.8,12.1,11.8h353c6.7,0,12.1-5.3,12.1-11.8V109.7c0-6.1-5.4-11.1-12.1-11.1ZM249.2,101.4c1.6-.2,3,1.1,2.8,2.7-.1,1.1-1,1.9-2.1,2.1-1.6.2-3-1.1-2.8-2.7.1-1.1,1-1.9,2.1-2ZM70.1,109.2h358.9v195.2H70.1V109.2Z"/>
    </g>
  </g>
</svg>